<mxfile host="app.diagrams.net" modified="2024-07-11T13:57:05.610Z" agent="Mozilla/5.0 (Macintosh; Intel Mac OS X 10_15_7) AppleWebKit/537.36 (KHTML, like Gecko) Chrome/126.0.0.0 Safari/537.36" etag="qCAOyl_wEjYQTEhK-LkB" version="24.6.4" type="github">
  <diagram name="Page-1" id="sAIJxbv4L5F3AIIXY-za">
    <mxGraphModel dx="1026" dy="573" grid="1" gridSize="10" guides="1" tooltips="1" connect="1" arrows="1" fold="1" page="1" pageScale="1" pageWidth="827" pageHeight="1169" math="0" shadow="0">
      <root>
        <mxCell id="0" />
        <mxCell id="1" parent="0" />
        <mxCell id="TNWHBnVi9d8Bc9AvcD78-1" value="&lt;div&gt;Customer&lt;/div&gt;&lt;div&gt;POST&lt;/div&gt;" style="rounded=1;whiteSpace=wrap;html=1;" vertex="1" parent="1">
          <mxGeometry x="100" y="300" width="120" height="60" as="geometry" />
        </mxCell>
        <mxCell id="TNWHBnVi9d8Bc9AvcD78-2" value="" style="rounded=1;whiteSpace=wrap;html=1;" vertex="1" parent="1">
          <mxGeometry x="324" y="290" width="180" height="60" as="geometry" />
        </mxCell>
        <mxCell id="TNWHBnVi9d8Bc9AvcD78-3" value="iomp-customer-service" style="text;html=1;align=center;verticalAlign=middle;whiteSpace=wrap;rounded=0;" vertex="1" parent="1">
          <mxGeometry x="350" y="307.5" width="130" height="22.5" as="geometry" />
        </mxCell>
        <mxCell id="TNWHBnVi9d8Bc9AvcD78-4" value="" style="shape=flexArrow;endArrow=classic;startArrow=classic;html=1;rounded=0;" edge="1" parent="1">
          <mxGeometry width="100" height="100" relative="1" as="geometry">
            <mxPoint x="220" y="320" as="sourcePoint" />
            <mxPoint x="320" y="320" as="targetPoint" />
          </mxGeometry>
        </mxCell>
        <mxCell id="TNWHBnVi9d8Bc9AvcD78-5" value="" style="shape=flexArrow;endArrow=classic;startArrow=classic;html=1;rounded=0;" edge="1" parent="1">
          <mxGeometry width="100" height="100" relative="1" as="geometry">
            <mxPoint x="504" y="319.5" as="sourcePoint" />
            <mxPoint x="600" y="320" as="targetPoint" />
          </mxGeometry>
        </mxCell>
        <mxCell id="TNWHBnVi9d8Bc9AvcD78-6" value="DB" style="shape=cylinder3;whiteSpace=wrap;html=1;boundedLbl=1;backgroundOutline=1;size=15;" vertex="1" parent="1">
          <mxGeometry x="430" y="420" width="60" height="60" as="geometry" />
        </mxCell>
        <mxCell id="TNWHBnVi9d8Bc9AvcD78-7" value="&lt;pre style=&quot;margin-top: 0px;&quot;&gt;&lt;pre&gt;&lt;pre&gt;&lt;pre&gt;&lt;span dir=&quot;ltr&quot; class=&quot;ui-provider a b c d e f g h i j k l m n o p q r s t u v w x y z ab ac ae af ag ah ai aj ak&quot;&gt;&lt;pre&gt;&lt;br&gt;&lt;/pre&gt;&lt;pre&gt;{&lt;br/&gt;   &quot;projectId&quot;:&quot;N000027&quot;,&lt;br/&gt;   &quot;user&quot;:{&lt;br/&gt;      &quot;firstName&quot;:&quot;John&quot;,&lt;br/&gt;      &quot;lastName&quot;:&quot;Antony&quot;,&lt;br/&gt;      &quot;emailId&quot;:&quot;john.antony@csc.com&quot;,&lt;br/&gt;      &quot;phone&quot;:&quot;+17884809368&quot;,&lt;br/&gt;      &quot;primary&quot;:false&lt;br/&gt;   }&lt;br/&gt;}&lt;br&gt;&lt;/pre&gt;&lt;/span&gt;&lt;/pre&gt;&lt;/pre&gt;&lt;/pre&gt;&lt;/pre&gt;" style="text;html=1;whiteSpace=wrap;overflow=hidden;rounded=0;align=left;" vertex="1" parent="1">
          <mxGeometry x="80" y="100" width="360" height="190" as="geometry" />
        </mxCell>
        <mxCell id="TNWHBnVi9d8Bc9AvcD78-8" value="&lt;span style=&quot;color: rgb(0, 0, 0); font-family: Helvetica; font-size: 12px; font-style: normal; font-variant-ligatures: normal; font-variant-caps: normal; font-weight: 400; letter-spacing: normal; orphans: 2; text-align: center; text-indent: 0px; text-transform: none; widows: 2; word-spacing: 0px; -webkit-text-stroke-width: 0px; white-space: normal; background-color: rgb(251, 251, 251); text-decoration-thickness: initial; text-decoration-style: initial; text-decoration-color: initial; display: inline !important; float: none;&quot;&gt;iomp-user-service&lt;/span&gt;" style="rounded=1;whiteSpace=wrap;html=1;" vertex="1" parent="1">
          <mxGeometry x="600" y="280" width="180" height="60" as="geometry" />
        </mxCell>
        <mxCell id="TNWHBnVi9d8Bc9AvcD78-9" value="DB" style="shape=cylinder3;whiteSpace=wrap;html=1;boundedLbl=1;backgroundOutline=1;size=15;" vertex="1" parent="1">
          <mxGeometry x="660" y="410" width="60" height="60" as="geometry" />
        </mxCell>
        <mxCell id="TNWHBnVi9d8Bc9AvcD78-10" value="" style="shape=flexArrow;endArrow=classic;startArrow=classic;html=1;rounded=0;entryX=0.75;entryY=1;entryDx=0;entryDy=0;exitX=0.5;exitY=0;exitDx=0;exitDy=0;exitPerimeter=0;" edge="1" parent="1" source="TNWHBnVi9d8Bc9AvcD78-6" target="TNWHBnVi9d8Bc9AvcD78-2">
          <mxGeometry width="100" height="100" relative="1" as="geometry">
            <mxPoint x="450" y="390" as="sourcePoint" />
            <mxPoint x="550" y="290" as="targetPoint" />
          </mxGeometry>
        </mxCell>
        <mxCell id="TNWHBnVi9d8Bc9AvcD78-11" value="" style="shape=flexArrow;endArrow=classic;startArrow=classic;html=1;rounded=0;exitX=0.5;exitY=0;exitDx=0;exitDy=0;exitPerimeter=0;entryX=0.5;entryY=1;entryDx=0;entryDy=0;" edge="1" parent="1" source="TNWHBnVi9d8Bc9AvcD78-9" target="TNWHBnVi9d8Bc9AvcD78-8">
          <mxGeometry width="100" height="100" relative="1" as="geometry">
            <mxPoint x="470" y="430" as="sourcePoint" />
            <mxPoint x="550" y="370" as="targetPoint" />
          </mxGeometry>
        </mxCell>
        <mxCell id="TNWHBnVi9d8Bc9AvcD78-12" value="&lt;pre style=&quot;margin-top: 0px;&quot;&gt;&lt;pre&gt;&lt;pre&gt;&lt;pre&gt;&lt;span dir=&quot;ltr&quot; class=&quot;ui-provider a b c d e f g h i j k l m n o p q r s t u v w x y z ab ac ae af ag ah ai aj ak&quot;&gt;&lt;blockquote&gt;{&lt;br&gt;   &quot;customerName&quot;:&quot;CSC&quot;,&lt;br&gt;   &quot;customerId&quot;:&quot;CUST89345&quot;,&lt;br&gt;   &quot;firstName&quot;:&quot;John&quot;,&lt;br&gt;   &quot;lastName&quot;:&quot;Antony&quot;,&lt;br&gt;   &quot;emailId&quot;:&quot;john.antony@csc.com&quot;,&lt;br&gt;   &quot;phone&quot;:&quot;+17884809368&quot;&lt;br&gt;}&lt;br&gt;&lt;/blockquote&gt;&lt;/span&gt;&lt;/pre&gt;&lt;/pre&gt;&lt;/pre&gt;&lt;/pre&gt;" style="text;html=1;whiteSpace=wrap;overflow=hidden;rounded=0;align=left;" vertex="1" parent="1">
          <mxGeometry x="430" y="140" width="420" height="180" as="geometry" />
        </mxCell>
        <mxCell id="TNWHBnVi9d8Bc9AvcD78-13" value="&lt;pre style=&quot;margin-top: 0px;&quot;&gt;&lt;pre&gt;&lt;pre&gt;&lt;pre&gt;&lt;span dir=&quot;ltr&quot; class=&quot;ui-provider a b c d e f g h i j k l m n o p q r s t u v w x y z ab ac ae af ag ah ai aj ak&quot;&gt;&lt;pre&gt;{&lt;br&gt;   &quot;data&quot;:{&lt;br&gt;      &quot;userId&quot;:&quot;234&quot;,&lt;br&gt;      &quot;name&quot;:&quot;John Antony&quot;&lt;/pre&gt;&lt;pre&gt;   },&lt;br&gt;   &quot;totalRecords&quot;:1,&lt;br&gt;   &quot;key&quot;:&quot;7ef66691-436b-4615-bda8-a9081bbfc71a&quot;,&lt;br&gt;   &quot;timestamp&quot;:1718281647028&lt;br&gt;}&lt;br&gt;&lt;/pre&gt;&lt;/span&gt;&lt;/pre&gt;&lt;/pre&gt;&lt;/pre&gt;&lt;/pre&gt;" style="text;html=1;whiteSpace=wrap;overflow=hidden;rounded=0;align=left;" vertex="1" parent="1">
          <mxGeometry x="504" y="420" width="390" height="190" as="geometry" />
        </mxCell>
        <mxCell id="TNWHBnVi9d8Bc9AvcD78-14" value="&lt;pre style=&quot;margin-top: 0px;&quot;&gt;&lt;pre&gt;&lt;pre&gt;&lt;pre&gt;&lt;span dir=&quot;ltr&quot; class=&quot;ui-provider a b c d e f g h i j k l m n o p q r s t u v w x y z ab ac ae af ag ah ai aj ak&quot;&gt;&lt;pre&gt;{&lt;br&gt;   &quot;data&quot;:“User John&lt;b&gt; Antony&lt;/b&gt;&lt;span style=&quot;white-space: normal; color: rgb(23, 43, 77); font-family: -apple-system, &amp;quot;system-ui&amp;quot;, &amp;quot;Segoe UI&amp;quot;, Roboto, Oxygen, Ubuntu, &amp;quot;Fira Sans&amp;quot;, &amp;quot;Droid Sans&amp;quot;, &amp;quot;Helvetica Neue&amp;quot;, sans-serif; font-size: 14px; letter-spacing: -0.07px; background-color: rgba(9, 30, 66, 0.06);&quot;&gt;&amp;nbsp;successfully added for the Customer #&lt;/span&gt;000027.”&lt;span style=&quot;background-color: initial; font-family: Helvetica; white-space: normal;&quot;&gt;,&lt;/span&gt;&lt;br&gt;&lt;/pre&gt;&lt;pre&gt;   &quot;totalRecords&quot;:1,&lt;br&gt;   &quot;key&quot;:&quot;7ef66691-436b-4615-bda8-a9081bbfc71a&quot;,&lt;br&gt;   &quot;timestamp&quot;:1718281647028&lt;br&gt;}&lt;br&gt;&lt;/pre&gt;&lt;/span&gt;&lt;/pre&gt;&lt;/pre&gt;&lt;/pre&gt;&lt;/pre&gt;" style="text;html=1;whiteSpace=wrap;overflow=hidden;rounded=0;align=left;" vertex="1" parent="1">
          <mxGeometry x="50" y="395" width="390" height="190" as="geometry" />
        </mxCell>
        <mxCell id="TNWHBnVi9d8Bc9AvcD78-15" value="IAM" style="rounded=1;whiteSpace=wrap;html=1;" vertex="1" parent="1">
          <mxGeometry x="870" y="280" width="120" height="60" as="geometry" />
        </mxCell>
        <mxCell id="TNWHBnVi9d8Bc9AvcD78-16" value="" style="shape=flexArrow;endArrow=classic;startArrow=classic;html=1;rounded=0;entryX=0;entryY=0.5;entryDx=0;entryDy=0;exitX=1;exitY=0.5;exitDx=0;exitDy=0;" edge="1" parent="1" target="TNWHBnVi9d8Bc9AvcD78-15">
          <mxGeometry width="100" height="100" relative="1" as="geometry">
            <mxPoint x="780" y="310" as="sourcePoint" />
            <mxPoint x="880" y="220" as="targetPoint" />
          </mxGeometry>
        </mxCell>
      </root>
    </mxGraphModel>
  </diagram>
</mxfile>
